<svg xmlns="http://www.w3.org/2000/svg" xmlns:xlink="http://www.w3.org/1999/xlink" width="261" height="252" viewBox="0 0 261 252">
    <defs>
        <path id="a" d="M.079.332h169.7V102.27H.079z"/>
        <path id="c" d="M0 .194h83.577V71.71H0z"/>
    </defs>
    <g fill="none" fill-rule="evenodd">
        <path fill="#0033E8" d="M143.013 11.36c-.548 0-.994-.458-.994-1.023V1.023c0-.565.446-1.023.994-1.023.55 0 .995.458.995 1.023v9.314c0 .565-.446 1.023-.995 1.023"/>
        <path fill="#0033E8" d="M147.5 6.702h-8.976c-.548 0-.994-.458-.994-1.023 0-.564.446-1.022.994-1.022h8.976c.55 0 .995.458.995 1.022 0 .565-.446 1.023-.995 1.023M255.368 105.448c-.55 0-.995-.459-.995-1.023V95.11c0-.565.446-1.023.995-1.023.549 0 .994.458.994 1.023v9.314c0 .564-.445 1.023-.994 1.023"/>
        <path fill="#0033E8" d="M259.855 100.79h-8.976c-.55 0-.995-.458-.995-1.023 0-.564.446-1.022.995-1.022h8.976c.548 0 .994.458.994 1.022 0 .565-.446 1.023-.994 1.023M121.14 181.127c-.55 0-.995-.458-.995-1.023v-9.314c0-.564.445-1.023.994-1.023.549 0 .994.459.994 1.023v9.314c0 .565-.445 1.023-.994 1.023"/>
        <path fill="#0033E8" d="M125.626 176.47h-8.976c-.549 0-.994-.459-.994-1.023 0-.565.445-1.023.994-1.023h8.976c.549 0 .994.458.994 1.023 0 .564-.445 1.022-.994 1.022M19.722 120.788c-.549 0-.994-.458-.994-1.023v-9.314c0-.564.445-1.023.994-1.023.549 0 .994.459.994 1.023v9.314c0 .565-.445 1.023-.994 1.023"/>
        <path fill="#0033E8" d="M24.209 116.13h-8.976c-.549 0-.994-.458-.994-1.022 0-.565.445-1.023.994-1.023h8.976c.549 0 .994.458.994 1.023 0 .564-.445 1.022-.994 1.022M235.444 155.184h-15.94c-.548 0-.994-.458-.994-1.023 0-.564.446-1.022.995-1.022h15.94c.548 0 .993.458.993 1.022 0 .565-.445 1.023-.994 1.023M245.294 155.184h-4.425c-.55 0-.995-.458-.995-1.023 0-.564.445-1.022.995-1.022h4.425c.549 0 .994.458.994 1.022 0 .565-.445 1.023-.994 1.023M253.708 155.184h-4.427c-.55 0-.995-.458-.995-1.023 0-.564.445-1.022.995-1.022h4.427c.549 0 .994.458.994 1.022 0 .565-.445 1.023-.994 1.023M238.54 160.876h-15.937c-.55 0-.995-.458-.995-1.023 0-.564.446-1.023.995-1.023h15.937c.548 0 .994.459.994 1.023 0 .565-.446 1.023-.994 1.023M248.392 160.876h-4.425c-.55 0-.994-.458-.994-1.023 0-.564.445-1.023.994-1.023h4.425c.549 0 .994.459.994 1.023 0 .565-.445 1.023-.994 1.023M256.806 160.876h-4.428c-.55 0-.994-.458-.994-1.023 0-.564.445-1.023.994-1.023h4.428c.549 0 .994.459.994 1.023 0 .565-.445 1.023-.994 1.023M21.673 65.187H5.733c-.549 0-.994-.458-.994-1.023 0-.564.445-1.022.994-1.022h15.94c.548 0 .994.458.994 1.022 0 .565-.446 1.023-.994 1.023M31.522 65.187h-4.425c-.55 0-.994-.458-.994-1.023 0-.564.445-1.022.994-1.022h4.425c.55 0 .995.458.995 1.022 0 .565-.446 1.023-.995 1.023M39.936 65.187H35.51c-.55 0-.994-.458-.994-1.023 0-.564.445-1.022.994-1.022h4.427c.55 0 .995.458.995 1.022 0 .565-.446 1.023-.995 1.023M24.768 70.879H8.831c-.549 0-.994-.458-.994-1.023s.445-1.023.994-1.023h15.937c.549 0 .994.458.994 1.023s-.445 1.023-.994 1.023M34.62 70.879h-4.424c-.55 0-.995-.458-.995-1.023s.445-1.023.995-1.023h4.424c.55 0 .995.458.995 1.023s-.446 1.023-.995 1.023M43.034 70.879h-4.427c-.55 0-.995-.458-.995-1.023s.445-1.023.995-1.023h4.427c.55 0 .995.458.995 1.023s-.446 1.023-.995 1.023"/>
        <path fill="#CCD6FA" d="M226.15 113.805h-37.673c-.987 0-1.795-.83-1.795-1.846s.808-1.847 1.795-1.847h37.672c.988 0 1.796.83 1.796 1.847 0 1.015-.808 1.846-1.796 1.846m0 7.87h-37.672c-.987 0-1.795-.831-1.795-1.847s.808-1.847 1.795-1.847h37.672c.988 0 1.796.831 1.796 1.847s-.808 1.846-1.796 1.846m0 7.87h-37.672c-.987 0-1.795-.832-1.795-1.847 0-1.016.808-1.847 1.795-1.847h37.672c.988 0 1.796.831 1.796 1.847 0 1.015-.808 1.846-1.796 1.846m2.293-25.056h-42.257c-2.188 0-3.978 1.84-3.978 4.09v21.989c0 2.25 1.79 4.09 3.978 4.09h3.1l-.084 4.423c-.016.774.78 1.284 1.448.93l10.116-5.352h27.677c2.188 0 3.977-1.84 3.977-4.091v-21.988c0-2.25-1.79-4.09-3.977-4.09M98.515 39.228c-2.842 0-5.168-2.393-5.168-5.316 0-2.924 2.326-5.316 5.168-5.316 2.843 0 5.169 2.392 5.169 5.316 0 2.923-2.326 5.316-5.169 5.316m-17.227 0c-2.843 0-5.17-2.393-5.17-5.316 0-2.924 2.327-5.316 5.17-5.316 2.842 0 5.168 2.392 5.168 5.316 0 2.923-2.326 5.316-5.168 5.316m-17.228 0c-2.842 0-5.169-2.393-5.169-5.316 0-2.924 2.327-5.316 5.169-5.316 2.842 0 5.168 2.392 5.168 5.316 0 2.923-2.326 5.316-5.168 5.316m46.515-26.226H52c-3.033 0-5.513 2.552-5.513 5.67V49.15c0 3.12 2.48 5.671 5.513 5.671h38.363l14.022 7.419c.928.49 2.03-.216 2.008-1.289l-.117-6.13h4.298c3.031 0 5.513-2.551 5.513-5.67V18.671c0-3.118-2.482-5.67-5.513-5.67M230.797 60.6h-.87c.72 0 1.304.597 1.304 1.333 0 .737-.584 1.334-1.304 1.334h-.564l-.008.035a1.327 1.327 0 0 1 1.007 1.3c0 .736-.584 1.333-1.304 1.333h-.869c.72 0 1.304.598 1.304 1.334 0 .736-.584 1.333-1.304 1.333h-4.751c-2.345 0-2.968-.298-5.243-.889v-8.892c.046-.037 6.85-1.329 6.85-5.602v-.445c0-.737.761-1.333 1.191-1.333.029 0 .056.022.084.027.045-.005.085-.027.131-.027.72 0 1.302.595 1.304 1.33.008 0 .28 2.808-.869 5.16h3.911c.72 0 1.303.598 1.303 1.335 0 .736-.584 1.333-1.303 1.333zm-13.528 6.334c0 .194-.07.361-.213.503a.685.685 0 0 1-.5.212h-3.21a.686.686 0 0 1-.5-.212.687.687 0 0 1-.212-.503v-7.151c0-.194.07-.361.212-.502a.683.683 0 0 1 .5-.213h3.21c.193 0 .36.071.5.213a.684.684 0 0 1 .213.502v7.151zm5.456-21.252c-8.374 0-15.163 6.983-15.163 15.596 0 8.614 6.789 15.597 15.163 15.597s15.163-6.983 15.163-15.597c0-8.613-6.79-15.596-15.163-15.596zM49.906 103.47l-2.424 1.288-2.425-1.287a20.19 20.19 0 0 1-4.02-2.79c-2.385-2.15-4.175-4.933-4.285-8.125-.028-.73.032-1.48.194-2.25a5.528 5.528 0 0 1 2.329-3.554 5.328 5.328 0 0 1 3.055-.912c.364.004.73.043 1.091.123 1.965.484 3.507 2.03 4.031 4.021.516-1.991 2.055-3.538 4.018-4.021.311-.074.627-.112.944-.126a5.04 5.04 0 0 1 .909.027c2.338.308 4.225 2.105 4.693 4.469 1.23 5.864-3.383 10.631-8.11 13.138m-2.424-27.108c-9.61 0-17.4 8.013-17.4 17.897 0 9.885 7.79 17.897 17.4 17.897s17.4-8.012 17.4-17.897c0-9.884-7.79-17.897-17.4-17.897"/>
        <g transform="translate(39.771 148.649)">
            <mask id="b" fill="#fff">
                <use xlink:href="#a"/>
            </mask>
            <path fill="#EBEFFD" d="M157.599 82.653c-2.533 0-4.885.796-6.833 2.157-1.773.908-3.27 2.29-4.246 4.103-.477-8.766-15.306-13.655-19.965-2.243 1.572-13.293-14.883-18.181-21.376-9.908-2.433-10.345-17.639-14.29-25.561-.764 3.168-13.15-13.285-23.681-24.13-13.652-16.578-17.927.289-50.85 2-57.884-2.446-.354-3.858-2.336-5.4-4.13-4.426 3.774-17.906 30.478-20.126 36.063-5.119 12.881-10.756 8.996-10.756 8.996-7.16-3.98-23.614 8.054-12.519 22.667-7.44-1.826-10.364 11.338-2.285 16.603-11.735 2.632-6.251 19.556 9.164 17.423H167.762a12.72 12.72 0 0 0 2.017-6.903c0-6.92-5.453-12.528-12.18-12.528" mask="url(#b)"/>
        </g>
        <path fill="#6685F1" d="M118.728 150.531c-10.947 14.232-35.137 19.972-35.137 19.972s-.706-30.577 8.075-41.993c8.781-11.416 29.287-9.475 29.287-9.475s8.721 17.267-2.225 31.496"/>
        <path fill="#EBEFFD" d="M117.148 143.829c-7.624 9.913-24.44 13.939-24.44 13.939s-.453-21.268 5.664-29.22c6.117-7.951 20.364-6.63 20.364-6.63s6.038 11.998-1.588 21.91"/>
        <path fill="#0033E8" d="M139.816 163.238c-7.51-6.111-6.947-27.276-6.947-27.276s30.406-28.676 33.416-26.226c9.638 7.843-23.458 55.952-26.469 53.502"/>
        <path fill="#6685F1" d="M167.792 112.25c-2.93 8.47-7.035 16.523-11.956 23.944-3.539 5.335-7.106 11.02-11.225 15.904-2.345 2.778-4.95 5.204-8.058 6.696.87 1.816 1.939 3.366 3.264 4.444 2.776 2.26 31.146-38.49 27.975-50.988"/>
        <path fill="#0033E8" d="M75.146 110.612c7.51 6.111 27.406.68 27.406.68s20.136-37.034 17.126-39.484c-9.637-7.842-47.542 36.355-44.532 38.804"/>
        <path fill="#6685F1" d="M116.954 70.88c-7.341 4.879-14.015 10.84-19.905 17.474-4.234 4.77-8.793 9.649-12.464 14.897-2.09 2.986-3.786 6.148-4.483 9.605-1.918-.454-3.631-1.166-4.956-2.244-2.776-2.26 29.254-40.032 41.808-39.732"/>
        <path fill="#0033E8" d="M131.83 140.258c-1.759 2.286-4.61 2.978-6.37 1.546l-27.085-22.04c-1.759-1.432-1.761-4.446-.003-6.733l.452-.587c1.759-2.286 4.611-2.977 6.371-1.545l27.084 22.04c1.76 1.431 1.761 4.446.003 6.732l-.451.587z"/>
        <path fill="#FFF" d="M97.949 112.731c.59-2.247 7.491-27.441 24.765-49.898 29.296-38.086 58.14-42.198 69.181-42.198 2.402 0 3.94.198 4.388.265.437 1.146 3.496 9.766 2.551 23.437-.934 13.512-6.082 34.864-25.301 59.85-17.274 22.458-39.523 35.161-41.513 36.27l-34.071-27.726z"/>
        <path fill="#EDEDF2" d="M191.895 20.379c-10.943 0-39.95 4.04-69.376 42.295-18.25 23.728-24.852 50.154-24.852 50.154l17.163 13.967 17.164 13.967s23.482-12.689 41.734-36.416c37.306-48.5 22.733-83.677 22.733-83.677s-1.635-.29-4.566-.29m0 .511c2.175 0 3.635.164 4.209.242.576 1.567 3.397 10.037 2.48 23.222-.596 8.568-2.63 17.422-6.046 26.317-4.274 11.127-10.733 22.35-19.2 33.357-16.9 21.971-38.574 34.592-41.293 36.124l-16.907-13.758-16.906-13.758c.824-3.075 7.777-27.673 24.677-49.645 29.229-37.998 57.98-42.1 68.986-42.1"/>
        <path fill="#99ADF6" d="M130.315 111.189c-3.364-1.235-7.143 1.985-9.87 3.644-1.178.717-4.014 2.658-5.17.836-2.068-3.255.372-9.65 1.334-12.829 2.413-7.966 5.762-15.823 9.076-23.435 6.874-15.784 17.839-28.247 31.495-38.168 6.401-4.65 13.176-8.85 20.262-12.308 6.24-3.04 13.128-4.45 19.134-7.96-.072-.195-.115-.3-.115-.3s-36.635-6.496-73.942 42.005c-18.25 23.728-24.853 50.154-24.853 50.154l34.328 27.934s.616-.334 1.715-.986c-6.614-7.229-8.324-18.935-3.394-28.587"/>
        <path fill="#0033E8" d="M198.16 52.152c3.241-19.547-1.699-31.483-1.699-31.483s-12.43-2.199-30.178 5.543l31.876 25.94zM171.367 88.857c-7.158 9.305-20.295 10.881-29.342 3.519-9.048-7.364-10.578-20.875-3.421-30.18 7.159-9.306 20.294-10.883 29.342-3.52 9.048 7.362 10.579 20.875 3.421 30.181"/>
        <path fill="#6685F1" d="M167.532 85.737c-5.483 7.128-15.545 8.335-22.475 2.695-3.657-2.975-5.712-7.267-6.033-11.708-.08-1.16-.047-2.329.116-3.485.074-.576.18-1.143.318-1.698a16.32 16.32 0 0 1 1.8-4.463c.346-.61.74-1.197 1.176-1.765 5.484-7.129 15.553-8.331 22.478-2.696 3.438 2.798 5.46 6.76 5.953 10.908a16.91 16.91 0 0 1-.49 6.511 16.414 16.414 0 0 1-1.277 3.235c-.437.857-.96 1.678-1.566 2.466"/>
        <path fill="#FFF" fill-opacity=".5" d="M170.75 78.349l-31.292-6.808a16.302 16.302 0 0 1 1.801-4.463l29.606 6.447a16.91 16.91 0 0 1-.116 4.824M169.098 83.27l-30.073-6.546c-.08-1.16-.048-2.329.115-3.485l31.234 6.797a16.412 16.412 0 0 1-1.276 3.235"/>
        <path fill="#A3B6C1" fill-opacity=".5" d="M170.52 71.592c.3 3.985-.802 8.091-3.404 11.474-5.483 7.128-15.545 8.335-22.476 2.695-2.9-2.36-4.788-5.544-5.605-8.972.33 4.415 2.38 8.68 6.022 11.645 6.932 5.64 16.994 4.432 22.477-2.696 3.19-4.146 4.122-9.382 2.985-14.146" style="mix-blend-mode:multiply"/>
        <g transform="translate(0 124.615)">
            <mask id="d" fill="#fff">
                <use xlink:href="#c"/>
            </mask>
            <path fill="#CCD6FA" d="M10.948 11.231c3.332-.217 6.23 2.409 6.442 5.836.211 3.427-2.342 6.408-5.674 6.626-3.332.217-6.23-2.409-6.442-5.835-.211-3.427 2.342-6.41 5.674-6.627m15.413 1.543l35.45-2.313c1.974-.129 3.692 1.427 3.817 3.458.126 2.031-1.387 3.798-3.362 3.927l-35.45 2.313c-1.974.129-3.692-1.428-3.817-3.458-.125-2.03 1.387-3.798 3.362-3.927m23.086 49.7l-38.339 2.502c-1.48.097-2.769-1.07-2.863-2.593-.094-1.524 1.041-2.849 2.522-2.946L64.975 55.9a140.59 140.59 0 0 1 1.838-3.981l-56.508 3.687c-1.48.096-2.769-1.07-2.863-2.594-.094-1.523 1.04-2.848 2.522-2.945l59.675-3.894a384.907 384.907 0 0 1 2.042-3.995L9.727 46.221c-1.481.097-2.77-1.07-2.864-2.594-.093-1.523 1.041-2.848 2.522-2.944l65.346-4.265c.405-.75.811-1.493 1.215-2.223.035-.582.075-1.156.116-1.725L9.148 36.836c-1.481.097-2.77-1.07-2.864-2.593-.093-1.524 1.041-2.849 2.522-2.946l67.766-4.42c1.22-10.975 3.566-19.448 7.005-25.298C82.867.675 81.758.123 80.55.202L3.37 5.238C1.395 5.366-.118 7.134.007 9.165l3.644 59.078c.125 2.031 1.843 3.587 3.818 3.458l33.541-2.188c2.23-3.017 5.18-5.457 8.437-7.038" mask="url(#d)"/>
        </g>
        <path fill="#CCD6FA" d="M184.11 185.376c-.687 5.156-5.308 8.764-10.321 8.057-5.014-.706-8.52-5.46-7.834-10.616.687-5.157 5.308-8.764 10.322-8.058 5.013.707 8.52 5.46 7.833 10.617m47.056-8.721l-65.648-9.252c-2.001-.282-3.845 1.157-4.12 3.215l-5.68 42.648a21.375 21.375 0 0 1 9.447 3.253l24.664-23.866 10.345 12.37 16.578-17.115 9.163 26.436-2.357 17.696-10.777-1.519a20.882 20.882 0 0 1 2.651 4.17l7.856 1.106c2 .283 3.844-1.156 4.118-3.214l6.886-51.692c.274-2.057-1.125-3.954-3.126-4.236"/>
        <path fill="#0033E8" d="M32.61 218.08H16.67c-.548 0-.994-.458-.994-1.023s.446-1.023.994-1.023h15.94c.549 0 .994.458.994 1.023s-.445 1.023-.994 1.023M35.705 223.771H19.768c-.548 0-.994-.458-.994-1.022 0-.565.446-1.023.994-1.023h15.937c.55 0 .995.458.995 1.023 0 .564-.446 1.022-.995 1.022"/>
    </g>
</svg>
